<mxfile host="app.diagrams.net" modified="2023-06-18T18:10:58.610Z" agent="Mozilla/5.0 (Windows NT 10.0; Win64; x64) AppleWebKit/537.36 (KHTML, like Gecko) Chrome/114.0.0.0 Safari/537.36 Edg/114.0.1823.51" etag="ygdP_omlEUM-_atzmu-3" version="21.4.0" type="device">
  <diagram name="Page-1" id="0Cwt4QP0qd3QUfhQO7_g">
    <mxGraphModel dx="924" dy="1652" grid="1" gridSize="10" guides="1" tooltips="1" connect="1" arrows="1" fold="1" page="1" pageScale="1" pageWidth="850" pageHeight="1100" math="0" shadow="0">
      <root>
        <mxCell id="0" />
        <mxCell id="1" parent="0" />
        <mxCell id="0l7NrBNHvIj9G9taiQ1M-17" value="" style="rounded=1;whiteSpace=wrap;html=1;fillColor=#dae8fc;strokeColor=#6c8ebf;" vertex="1" parent="1">
          <mxGeometry x="80" y="-20" width="530" height="210" as="geometry" />
        </mxCell>
        <mxCell id="0l7NrBNHvIj9G9taiQ1M-7" value="" style="rounded=1;whiteSpace=wrap;html=1;fillColor=#e1d5e7;strokeColor=#9673a6;" vertex="1" parent="1">
          <mxGeometry x="155" y="320" width="530" height="270" as="geometry" />
        </mxCell>
        <mxCell id="0l7NrBNHvIj9G9taiQ1M-31" style="edgeStyle=orthogonalEdgeStyle;rounded=0;orthogonalLoop=1;jettySize=auto;html=1;exitX=0.5;exitY=0;exitDx=0;exitDy=0;startArrow=classic;startFill=1;" edge="1" parent="1" source="0l7NrBNHvIj9G9taiQ1M-1" target="0l7NrBNHvIj9G9taiQ1M-19">
          <mxGeometry relative="1" as="geometry" />
        </mxCell>
        <mxCell id="0l7NrBNHvIj9G9taiQ1M-32" style="edgeStyle=orthogonalEdgeStyle;rounded=0;orthogonalLoop=1;jettySize=auto;html=1;exitX=0.25;exitY=0;exitDx=0;exitDy=0;startArrow=classic;startFill=1;" edge="1" parent="1" source="0l7NrBNHvIj9G9taiQ1M-1" target="0l7NrBNHvIj9G9taiQ1M-20">
          <mxGeometry relative="1" as="geometry" />
        </mxCell>
        <mxCell id="0l7NrBNHvIj9G9taiQ1M-33" style="edgeStyle=orthogonalEdgeStyle;rounded=0;orthogonalLoop=1;jettySize=auto;html=1;exitX=0;exitY=0.25;exitDx=0;exitDy=0;entryX=0.25;entryY=1;entryDx=0;entryDy=0;startArrow=classic;startFill=1;" edge="1" parent="1" source="0l7NrBNHvIj9G9taiQ1M-1" target="0l7NrBNHvIj9G9taiQ1M-21">
          <mxGeometry relative="1" as="geometry" />
        </mxCell>
        <mxCell id="0l7NrBNHvIj9G9taiQ1M-34" style="edgeStyle=orthogonalEdgeStyle;rounded=0;orthogonalLoop=1;jettySize=auto;html=1;exitX=0;exitY=0.5;exitDx=0;exitDy=0;startArrow=classic;startFill=1;" edge="1" parent="1" source="0l7NrBNHvIj9G9taiQ1M-1" target="0l7NrBNHvIj9G9taiQ1M-18">
          <mxGeometry relative="1" as="geometry" />
        </mxCell>
        <mxCell id="0l7NrBNHvIj9G9taiQ1M-1" value="" style="image;html=1;image=img/lib/clip_art/networking/Firewall_02_128x128.png" vertex="1" parent="1">
          <mxGeometry x="290" y="123.55" width="80" height="80" as="geometry" />
        </mxCell>
        <mxCell id="0l7NrBNHvIj9G9taiQ1M-3" value="" style="shape=image;verticalLabelPosition=bottom;labelBackgroundColor=default;verticalAlign=top;aspect=fixed;imageAspect=0;image=https://upload.wikimedia.org/wikipedia/commons/thumb/b/b9/PfSense_logo.png/1200px-PfSense_logo.png;" vertex="1" parent="1">
          <mxGeometry x="390.02" width="169.97" height="50" as="geometry" />
        </mxCell>
        <mxCell id="0l7NrBNHvIj9G9taiQ1M-4" value="Managed Switch" style="image;html=1;image=img/lib/clip_art/networking/Switch_128x128.png" vertex="1" parent="1">
          <mxGeometry x="350" y="440" width="250" height="80" as="geometry" />
        </mxCell>
        <mxCell id="0l7NrBNHvIj9G9taiQ1M-23" style="edgeStyle=orthogonalEdgeStyle;rounded=0;orthogonalLoop=1;jettySize=auto;html=1;exitX=0.25;exitY=0;exitDx=0;exitDy=0;entryX=0;entryY=1;entryDx=0;entryDy=0;startArrow=classic;startFill=1;strokeColor=#FF0000;" edge="1" parent="1" source="0l7NrBNHvIj9G9taiQ1M-5" target="0l7NrBNHvIj9G9taiQ1M-22">
          <mxGeometry relative="1" as="geometry" />
        </mxCell>
        <mxCell id="0l7NrBNHvIj9G9taiQ1M-24" style="edgeStyle=orthogonalEdgeStyle;rounded=0;orthogonalLoop=1;jettySize=auto;html=1;exitX=0.5;exitY=0;exitDx=0;exitDy=0;entryX=0.25;entryY=1;entryDx=0;entryDy=0;startArrow=classic;startFill=1;strokeColor=#0000CC;" edge="1" parent="1" source="0l7NrBNHvIj9G9taiQ1M-5" target="0l7NrBNHvIj9G9taiQ1M-22">
          <mxGeometry relative="1" as="geometry" />
        </mxCell>
        <mxCell id="0l7NrBNHvIj9G9taiQ1M-25" style="edgeStyle=orthogonalEdgeStyle;rounded=0;orthogonalLoop=1;jettySize=auto;html=1;exitX=0.75;exitY=0;exitDx=0;exitDy=0;entryX=0.5;entryY=1;entryDx=0;entryDy=0;startArrow=classic;startFill=1;strokeColor=#999900;" edge="1" parent="1" source="0l7NrBNHvIj9G9taiQ1M-5" target="0l7NrBNHvIj9G9taiQ1M-22">
          <mxGeometry relative="1" as="geometry" />
        </mxCell>
        <mxCell id="0l7NrBNHvIj9G9taiQ1M-26" style="edgeStyle=orthogonalEdgeStyle;rounded=0;orthogonalLoop=1;jettySize=auto;html=1;exitX=1;exitY=0;exitDx=0;exitDy=0;entryX=0.75;entryY=1;entryDx=0;entryDy=0;startArrow=classic;startFill=1;strokeColor=#006600;" edge="1" parent="1" source="0l7NrBNHvIj9G9taiQ1M-5" target="0l7NrBNHvIj9G9taiQ1M-22">
          <mxGeometry relative="1" as="geometry" />
        </mxCell>
        <mxCell id="0l7NrBNHvIj9G9taiQ1M-5" value="Trunk port" style="rounded=0;whiteSpace=wrap;html=1;" vertex="1" parent="1">
          <mxGeometry x="140" y="320" width="50" height="40" as="geometry" />
        </mxCell>
        <mxCell id="0l7NrBNHvIj9G9taiQ1M-13" style="edgeStyle=orthogonalEdgeStyle;rounded=0;orthogonalLoop=1;jettySize=auto;html=1;exitX=0;exitY=0.75;exitDx=0;exitDy=0;entryX=1;entryY=0;entryDx=0;entryDy=0;strokeColor=#FF0000;curved=1;" edge="1" parent="1" source="0l7NrBNHvIj9G9taiQ1M-9" target="0l7NrBNHvIj9G9taiQ1M-5">
          <mxGeometry relative="1" as="geometry">
            <Array as="points">
              <mxPoint x="250" y="310" />
              <mxPoint x="220" y="310" />
              <mxPoint x="220" y="320" />
            </Array>
          </mxGeometry>
        </mxCell>
        <mxCell id="0l7NrBNHvIj9G9taiQ1M-9" value="vlan2" style="rounded=0;whiteSpace=wrap;html=1;strokeColor=#FF0000;labelBackgroundColor=default;fontColor=#FF0000;" vertex="1" parent="1">
          <mxGeometry x="250" y="290" width="50" height="40" as="geometry" />
        </mxCell>
        <mxCell id="0l7NrBNHvIj9G9taiQ1M-16" style="edgeStyle=orthogonalEdgeStyle;rounded=0;orthogonalLoop=1;jettySize=auto;html=1;exitX=0.25;exitY=1;exitDx=0;exitDy=0;fontColor=#006600;curved=1;strokeColor=#006600;entryX=1;entryY=0.5;entryDx=0;entryDy=0;" edge="1" parent="1" source="0l7NrBNHvIj9G9taiQ1M-10" target="0l7NrBNHvIj9G9taiQ1M-5">
          <mxGeometry relative="1" as="geometry">
            <mxPoint x="190" y="340" as="targetPoint" />
            <Array as="points">
              <mxPoint x="483" y="340" />
            </Array>
          </mxGeometry>
        </mxCell>
        <mxCell id="0l7NrBNHvIj9G9taiQ1M-10" value="vlan5" style="rounded=0;whiteSpace=wrap;html=1;strokeColor=#006600;fontColor=#006600;" vertex="1" parent="1">
          <mxGeometry x="470" y="290" width="50" height="40" as="geometry" />
        </mxCell>
        <mxCell id="0l7NrBNHvIj9G9taiQ1M-15" style="edgeStyle=orthogonalEdgeStyle;rounded=0;orthogonalLoop=1;jettySize=auto;html=1;exitX=0.25;exitY=1;exitDx=0;exitDy=0;strokeColor=#999900;curved=1;entryX=1;entryY=0.75;entryDx=0;entryDy=0;" edge="1" parent="1" source="0l7NrBNHvIj9G9taiQ1M-11" target="0l7NrBNHvIj9G9taiQ1M-5">
          <mxGeometry relative="1" as="geometry">
            <mxPoint x="210" y="330" as="targetPoint" />
            <Array as="points">
              <mxPoint x="412" y="350" />
            </Array>
          </mxGeometry>
        </mxCell>
        <mxCell id="0l7NrBNHvIj9G9taiQ1M-11" value="vlan4" style="rounded=0;whiteSpace=wrap;html=1;strokeColor=#999900;fontColor=#999900;" vertex="1" parent="1">
          <mxGeometry x="400" y="290" width="50" height="40" as="geometry" />
        </mxCell>
        <mxCell id="0l7NrBNHvIj9G9taiQ1M-14" style="edgeStyle=orthogonalEdgeStyle;rounded=0;orthogonalLoop=1;jettySize=auto;html=1;exitX=0;exitY=1;exitDx=0;exitDy=0;strokeColor=#0000CC;curved=1;entryX=1;entryY=0.25;entryDx=0;entryDy=0;" edge="1" parent="1" source="0l7NrBNHvIj9G9taiQ1M-12" target="0l7NrBNHvIj9G9taiQ1M-5">
          <mxGeometry relative="1" as="geometry">
            <mxPoint x="210" y="330" as="targetPoint" />
            <Array as="points">
              <mxPoint x="330" y="331" />
              <mxPoint x="220" y="331" />
              <mxPoint x="190" y="330" />
            </Array>
          </mxGeometry>
        </mxCell>
        <mxCell id="0l7NrBNHvIj9G9taiQ1M-12" value="vlan3" style="rounded=0;whiteSpace=wrap;html=1;strokeColor=#0000CC;fontColor=#0000CC;" vertex="1" parent="1">
          <mxGeometry x="330" y="290" width="50" height="40" as="geometry" />
        </mxCell>
        <mxCell id="0l7NrBNHvIj9G9taiQ1M-18" value="WAN" style="whiteSpace=wrap;html=1;aspect=fixed;" vertex="1" parent="1">
          <mxGeometry x="70" y="-40" width="50" height="50" as="geometry" />
        </mxCell>
        <mxCell id="0l7NrBNHvIj9G9taiQ1M-19" value="LAN3" style="whiteSpace=wrap;html=1;aspect=fixed;" vertex="1" parent="1">
          <mxGeometry x="295" y="-40" width="50" height="50" as="geometry" />
        </mxCell>
        <mxCell id="0l7NrBNHvIj9G9taiQ1M-20" value="LAN2" style="whiteSpace=wrap;html=1;aspect=fixed;" vertex="1" parent="1">
          <mxGeometry x="220" y="-40" width="50" height="50" as="geometry" />
        </mxCell>
        <mxCell id="0l7NrBNHvIj9G9taiQ1M-21" value="LAN" style="whiteSpace=wrap;html=1;aspect=fixed;" vertex="1" parent="1">
          <mxGeometry x="150" y="-40" width="50" height="50" as="geometry" />
        </mxCell>
        <mxCell id="0l7NrBNHvIj9G9taiQ1M-35" style="edgeStyle=orthogonalEdgeStyle;rounded=0;orthogonalLoop=1;jettySize=auto;html=1;exitX=0.983;exitY=0.062;exitDx=0;exitDy=0;entryX=0;entryY=0.75;entryDx=0;entryDy=0;startArrow=classic;startFill=1;exitPerimeter=0;" edge="1" parent="1" source="0l7NrBNHvIj9G9taiQ1M-22" target="0l7NrBNHvIj9G9taiQ1M-1">
          <mxGeometry relative="1" as="geometry">
            <Array as="points" />
          </mxGeometry>
        </mxCell>
        <mxCell id="0l7NrBNHvIj9G9taiQ1M-22" value="LAN6&lt;br&gt;(vLAN trunk)" style="whiteSpace=wrap;html=1;aspect=fixed;" vertex="1" parent="1">
          <mxGeometry x="150" y="180" width="50" height="50" as="geometry" />
        </mxCell>
      </root>
    </mxGraphModel>
  </diagram>
</mxfile>
